<svg width="148" height="189" viewBox="0 0 148 189" fill="none" xmlns="http://www.w3.org/2000/svg">
<path d="M27.8254 127.358C19.1473 127.358 11.8763 120.087 11.8763 111.409V17.3563C11.8763 8.44359 19.1473 1.40723 27.8254 1.40723H121.878C130.791 1.40723 137.827 8.44359 137.827 17.3563V111.409C137.827 120.087 130.791 127.358 121.878 127.358H27.8254Z" fill="#0A0B0B"/>
<path fill-rule="evenodd" clip-rule="evenodd" d="M138.531 17.3563V111.409C138.531 120.556 131.025 128.062 121.878 128.062H27.8255C18.6782 128.062 11.1727 120.556 11.1727 111.409V17.3563C11.1727 8.20907 18.6782 0.703613 27.8255 0.703613H121.878C131.025 0.703613 138.531 8.20907 138.531 17.3563ZM27.8255 1.87634C19.3818 1.87634 12.58 8.9127 12.58 17.3563V111.409C12.58 119.853 19.3818 126.655 27.8255 126.655H121.878C130.322 126.655 137.124 119.853 137.124 111.409V17.3563C137.124 8.9127 130.322 1.87634 121.878 1.87634H27.8255Z" fill="#E2B41F"/>
<path d="M17.0364 122.198C14.2218 119.384 12.58 115.631 12.58 111.409V17.3565C12.58 8.91283 19.3818 1.87646 27.8255 1.87646H121.878C126.335 1.87646 130.556 3.98737 133.371 7.03646C135.716 9.85101 19.8509 125.013 17.0364 122.198Z" fill="#171919" stroke="#0A0B0B" stroke-width="0.6" stroke-linejoin="round"/>
<path d="M74.7345 66.3763L61.6 94.0527C60.6618 95.929 58.3163 97.3363 55.7363 97.3363H55.5018C52.9218 97.3363 50.5763 95.929 49.6382 94.0527L32.2818 56.5254H41.6636L55.9709 87.9545L70.9818 56.5254H74.9691L74.7345 66.3763Z" fill="#FEFEFE"/>
<path d="M85.2891 41.0453C85.5236 46.4399 81.7709 51.1308 76.6109 51.8344C75.9855 51.9908 75.4382 52.069 74.9691 52.069C70.7473 52.069 67.2291 49.7235 65.5873 46.2053C64.8055 44.7981 64.4146 43.3126 64.4146 41.749C64.4146 38.6999 65.8218 35.8853 67.9327 34.009C70.0436 32.1326 72.6236 31.1944 75.4382 31.429C80.5982 31.6635 84.82 35.8853 85.2891 41.0453Z" fill="#E2B41F"/>
<path d="M64 70.8328L79.0109 39.1692L84.1709 45.7365L69.3945 76.931L64 70.8328Z" fill="url(#paint0_linear_95_35)"/>
<path d="M116.718 56.5254L99.5964 94.0527C98.6582 95.929 96.3127 97.3363 93.4982 97.3363C90.9182 97.3363 88.5727 95.929 87.6345 94.0527L69.5745 55.1181L65.5873 46.2054C64.8055 44.7981 64.4146 43.3127 64.4146 41.749C64.4146 38.6999 65.8218 35.8854 67.9327 34.009L76.6109 51.8345L78.9564 56.7599L93.4982 88.189L108.275 56.5254H116.718Z" fill="#E2B41F"/>
<path d="M78.2527 41.7491C78.2527 42.9219 74.9691 48.3164 74.9691 48.3164C74.9691 48.3164 71.4509 42.9219 71.4509 41.7491C71.4509 39.8728 73.0927 38.231 74.9691 38.231C76.8455 38.231 78.2527 39.8728 78.2527 41.7491Z" fill="#0A0B0B"/>
<path d="M118.829 63.3272L120.002 71.7709C120.236 73.6472 117.891 74.5854 116.953 72.9436L111.089 61.6854C110.62 60.9818 109.916 60.7472 108.978 61.2163L97.0164 66.1418C95.3745 67.08 94.2018 64.7345 95.6091 63.3272L101.942 57.6981L113.904 47.1436C114.842 46.44 116.249 46.909 116.484 48.0818L118.829 63.3272Z" fill="#FEFEFE"/>
<path d="M46.5891 58.1672C46.5891 62.6236 42.8364 66.6108 38.1455 66.6108C33.4546 66.6108 29.7018 62.6236 29.7018 58.1672C29.7018 53.4763 33.4546 49.489 38.1455 49.489C42.8364 49.489 46.5891 53.4763 46.5891 58.1672Z" fill="#FEFEFE"/>
<path d="M41.8982 58.1672C41.8982 60.2781 40.2563 61.9199 38.1454 61.9199C36.0345 61.9199 34.3927 60.2781 34.3927 58.1672C34.3927 55.8217 36.0345 54.1799 38.1454 54.1799C40.2563 54.1799 41.8982 55.8217 41.8982 58.1672Z" fill="#0A0B0B"/>
<path d="M40.7255 64.2654L41.1946 65.2036" stroke="#6C6D70" stroke-width="0.4" stroke-linejoin="round"/>
<path d="M69.1054 68.2527L57.6127 92.1763C56.9091 93.5836 54.7982 93.5836 54.0945 92.1763L42.3672 67.5491" stroke="#6C6D70" stroke-width="0.4" stroke-linejoin="round" stroke-dasharray="1 1"/>
<path d="M69.5745 67.08L70.0436 66.1418" stroke="#6C6D70" stroke-width="0.4" stroke-linejoin="round"/>
<g clip-path="url(#clip0_95_35)">
<path d="M48.2 145.9L38.3 175.9H30.9L24.3 155.6L17.5 175.9H10L0.200012 145.9H7.40001L14.2 167L21.2 145.9H27.7L34.5 167.1L41.5 145.9H48.2Z" fill="#E7B21D"/>
<path fill-rule="evenodd" clip-rule="evenodd" d="M52 145.9H65.7C75.5 145.9 82.2 151.8 82.2 160.9C82.2 170 75.5 175.9 65.7 175.9H52V145.9ZM65.3 170.2C71.3 170.2 75.2 166.6 75.2 160.9C75.2 155.1 71.3 151.6 65.3 151.6H59V170.2H65.3Z" fill="#E7B21D"/>
<path fill-rule="evenodd" clip-rule="evenodd" d="M87.4 145.9H101.1C110.9 145.9 117.6 151.8 117.6 160.9C117.6 170 110.9 175.9 101.1 175.9H87.4V145.9ZM100.7 170.2C106.7 170.2 110.6 166.6 110.6 160.9C110.6 155.1 106.7 151.6 100.7 151.6H94.4V170.2H100.7Z" fill="#E7B21D"/>
<path d="M136 165.2V175.9H129V165.2L117.4 145.9H124.8L132.8 159.2L140.8 145.9H147.6L136 165.2Z" fill="#E7B21D"/>
<path d="M20.6 184.5H19.2V188.6H18.2V184.5H16.7V183.6H20.6V184.5Z" fill="#FEFEFE"/>
<path fill-rule="evenodd" clip-rule="evenodd" d="M27.3 188.6H26.4C26.2 188.6 26.0667 188.533 26 188.4L25.1 186.9C25.0333 186.833 24.9667 186.767 24.9 186.7C24.9 186.7 24.8333 186.7 24.7 186.7H24.4V188.6H23.3V183.6H24.9C25.2333 183.6 25.5333 183.633 25.8 183.7C26.0667 183.767 26.2667 183.867 26.4 184C26.5333 184.133 26.6333 184.3 26.7 184.5C26.8333 184.7 26.9 184.9 26.9 185.1C26.9 185.233 26.8667 185.367 26.8 185.5C26.7333 185.7 26.6667 185.833 26.6 185.9C26.4667 186.033 26.3667 186.167 26.3 186.3C26.1667 186.367 26 186.433 25.8 186.5C25.8667 186.567 25.9333 186.6 26 186.6C26.0667 186.667 26.1 186.733 26.1 186.8L27.3 188.6ZM24.9 186C25.1 186 25.2667 185.967 25.4 185.9C25.4667 185.9 25.5667 185.833 25.7 185.7C25.7667 185.633 25.8 185.567 25.8 185.5C25.8667 185.367 25.9 185.267 25.9 185.2C25.9 184.933 25.8333 184.733 25.7 184.6C25.5 184.467 25.2333 184.4 24.9 184.4H24.4V186H24.9Z" fill="#FEFEFE"/>
<path fill-rule="evenodd" clip-rule="evenodd" d="M34.2 188.6H33.4C33.3333 188.6 33.2667 188.567 33.2 188.5C33.1333 188.5 33.1 188.467 33.1 188.4L32.7 187.4H30.8L30.4 188.4C30.4 188.467 30.3667 188.5 30.3 188.5C30.2333 188.567 30.1667 188.6 30.1 188.6H29.3L31.2 183.6H32.3L34.2 188.6ZM32.4 186.7L31.9 185.2C31.9 185.133 31.8667 185.033 31.8 184.9C31.8 184.833 31.7667 184.733 31.7 184.6C31.7 184.733 31.6667 184.833 31.6 184.9C31.5333 185.033 31.5 185.133 31.5 185.2L31 186.7H32.4Z" fill="#FEFEFE"/>
<path d="M41 183.6V188.6H40.5C40.4333 188.6 40.3667 188.6 40.3 188.6C40.2333 188.533 40.1667 188.467 40.1 188.4L37.6 185.3C37.6 185.367 37.6333 185.433 37.7 185.5C37.7 185.567 37.7 185.633 37.7 185.7V188.6H36.7V183.6H37.3C37.3667 183.6 37.4 183.6 37.4 183.6C37.4 183.6 37.4333 183.6 37.5 183.6C37.5 183.667 37.5333 183.7 37.6 183.7C37.6 183.7 37.6 183.733 37.6 183.8L40.1 187C40.1 186.867 40.1 186.767 40.1 186.7C40.1 186.633 40.1 186.567 40.1 186.5V183.6H41Z" fill="#FEFEFE"/>
<path d="M46.8 184.6C46.8 184.667 46.7667 184.7 46.7 184.7C46.7 184.7 46.6667 184.7 46.6 184.7C46.5333 184.7 46.4667 184.7 46.4 184.7C46.4 184.633 46.3333 184.6 46.2 184.6C46.1333 184.533 46.0667 184.467 46 184.4C45.8667 184.4 45.7333 184.4 45.6 184.4C45.4 184.4 45.2333 184.433 45.1 184.5C44.9667 184.633 44.9 184.8 44.9 185C44.9 185.067 44.9333 185.133 45 185.2C45.0667 185.267 45.1667 185.333 45.3 185.4C45.3667 185.467 45.4667 185.533 45.6 185.6C45.7333 185.6 45.8667 185.633 46 185.7C46.1333 185.767 46.2667 185.833 46.4 185.9C46.6 185.967 46.7333 186.033 46.8 186.1C46.9333 186.233 47.0333 186.367 47.1 186.5C47.1667 186.633 47.2 186.8 47.2 187C47.2 187.267 47.1333 187.5 47 187.7C46.9333 187.9 46.8333 188.067 46.7 188.2C46.5667 188.333 46.4 188.433 46.2 188.5C45.9333 188.633 45.6667 188.7 45.4 188.7C45.2667 188.7 45.1 188.667 44.9 188.6C44.7667 188.6 44.6333 188.567 44.5 188.5C44.3667 188.433 44.2333 188.367 44.1 188.3C43.9667 188.233 43.8333 188.133 43.7 188L44 187.5C44.0667 187.5 44.1 187.467 44.1 187.4C44.1667 187.4 44.2333 187.4 44.3 187.4C44.3667 187.4 44.4333 187.433 44.5 187.5C44.5667 187.5 44.6333 187.533 44.7 187.6C44.7667 187.667 44.8667 187.733 45 187.8C45.1333 187.8 45.2667 187.8 45.4 187.8C45.6667 187.8 45.8667 187.767 46 187.7C46.1333 187.567 46.2 187.4 46.2 187.2C46.2 187.067 46.1667 186.967 46.1 186.9C46.0333 186.833 45.9333 186.767 45.8 186.7C45.7333 186.633 45.6333 186.567 45.5 186.5C45.3667 186.5 45.2333 186.467 45.1 186.4C44.9667 186.333 44.8 186.267 44.6 186.2C44.4667 186.133 44.3667 186.067 44.3 186C44.1667 185.867 44.0667 185.733 44 185.6C43.9333 185.467 43.9 185.267 43.9 185C43.9 184.8 43.9333 184.633 44 184.5C44.1333 184.3 44.2667 184.133 44.4 184C44.5333 183.867 44.7 183.767 44.9 183.7C45.1 183.633 45.3333 183.6 45.6 183.6C45.9333 183.6 46.2 183.633 46.4 183.7C46.6667 183.767 46.9 183.9 47.1 184.1L46.8 184.6Z" fill="#FEFEFE"/>
<path fill-rule="evenodd" clip-rule="evenodd" d="M51.7 183.6C52.0333 183.6 52.3 183.633 52.5 183.7C52.7667 183.833 53 183.967 53.2 184.1C53.3333 184.233 53.4333 184.4 53.5 184.6C53.5667 184.8 53.6 185 53.6 185.2C53.6 185.467 53.5667 185.7 53.5 185.9C53.4333 186.1 53.3 186.267 53.1 186.4C52.9667 186.533 52.7667 186.667 52.5 186.8C52.3 186.867 52.0333 186.9 51.7 186.9H51V188.6H50V183.6H51.7ZM51.7 186.1C52.0333 186.1 52.2667 186.033 52.4 185.9C52.5333 185.7 52.6 185.467 52.6 185.2C52.6 185.067 52.6 184.967 52.6 184.9C52.5333 184.767 52.4667 184.667 52.4 184.6C52.3333 184.533 52.2333 184.5 52.1 184.5C51.9667 184.433 51.8333 184.4 51.7 184.4H51V186.1H51.7Z" fill="#FEFEFE"/>
<path fill-rule="evenodd" clip-rule="evenodd" d="M61.2 186.1C61.2 186.5 61.1333 186.833 61 187.1C60.8666 187.433 60.7 187.7 60.5 187.9C60.2333 188.167 59.9666 188.367 59.7 188.5C59.3666 188.633 59 188.7 58.6 188.7C58.2 188.7 57.8666 188.633 57.6 188.5C57.2666 188.367 57 188.167 56.8 187.9C56.5333 187.7 56.3333 187.433 56.2 187.1C56.1333 186.833 56.1 186.5 56.1 186.1C56.1 185.767 56.1333 185.433 56.2 185.1C56.3333 184.767 56.5333 184.5 56.8 184.3C57 184.1 57.2666 183.933 57.6 183.8C57.8666 183.667 58.2 183.6 58.6 183.6C59 183.6 59.3666 183.667 59.7 183.8C59.9666 183.933 60.2333 184.1 60.5 184.3C60.7 184.5 60.8666 184.767 61 185.1C61.1333 185.433 61.2 185.767 61.2 186.1ZM60.1 186.1C60.1 185.833 60.0666 185.6 60 185.4C59.9333 185.2 59.8333 185.033 59.7 184.9C59.5666 184.767 59.4 184.633 59.2 184.5C59.0666 184.433 58.8666 184.4 58.6 184.4C58.4 184.4 58.2 184.433 58 184.5C57.8 184.633 57.6333 184.767 57.5 184.9C57.3666 185.033 57.2666 185.2 57.2 185.4C57.1333 185.6 57.1 185.833 57.1 186.1C57.1 186.367 57.1333 186.6 57.2 186.8C57.2666 187 57.3666 187.167 57.5 187.3C57.6333 187.5 57.8 187.633 58 187.7C58.2 187.767 58.4 187.8 58.6 187.8C58.8666 187.8 59.0666 187.767 59.2 187.7C59.4 187.633 59.5666 187.5 59.7 187.3C59.8333 187.167 59.9333 187 60 186.8C60.0666 186.6 60.1 186.367 60.1 186.1Z" fill="#FEFEFE"/>
<path fill-rule="evenodd" clip-rule="evenodd" d="M68 188.6H67C66.8667 188.6 66.7667 188.533 66.7 188.4L65.7 186.9C65.6333 186.833 65.6 186.767 65.6 186.7C65.5333 186.7 65.4667 186.7 65.4 186.7H65V188.6H64V183.6H65.6C65.9333 183.6 66.2333 183.633 66.5 183.7C66.7 183.767 66.9 183.867 67.1 184C67.2333 184.133 67.3333 184.3 67.4 184.5C67.4667 184.7 67.5 184.9 67.5 185.1C67.5 185.233 67.4667 185.367 67.4 185.5C67.4 185.7 67.3333 185.833 67.2 185.9C67.1333 186.033 67.0333 186.167 66.9 186.3C66.7667 186.367 66.6333 186.433 66.5 186.5C66.5667 186.567 66.6333 186.6 66.7 186.6C66.7 186.667 66.7333 186.733 66.8 186.8L68 188.6ZM65.6 186C65.7333 186 65.8667 185.967 66 185.9C66.1333 185.9 66.2333 185.833 66.3 185.7C66.3667 185.633 66.4333 185.567 66.5 185.5C66.5 185.367 66.5 185.267 66.5 185.2C66.5 184.933 66.4333 184.733 66.3 184.6C66.1667 184.467 65.9333 184.4 65.6 184.4H65.1V186H65.6Z" fill="#FEFEFE"/>
<path d="M73.9 184.5H72.5V188.6H71.4V184.5H70V183.6H73.9V184.5Z" fill="#FEFEFE"/>
<path fill-rule="evenodd" clip-rule="evenodd" d="M84.2 188.6H83.4C83.3333 188.6 83.2666 188.567 83.2 188.5C83.1333 188.5 83.1 188.467 83.1 188.4L82.8 187.4H80.8L80.4 188.4C80.4 188.467 80.3667 188.5 80.3 188.5C80.2333 188.567 80.1666 188.6 80.1 188.6H79.3L81.2 183.6H82.3L84.2 188.6ZM82.5 186.7L81.9 185.2C81.9 185.133 81.8667 185.033 81.8 184.9C81.8 184.833 81.7666 184.733 81.7 184.6C81.7 184.733 81.6666 184.833 81.6 184.9C81.6 185.033 81.5667 185.133 81.5 185.2L81 186.7H82.5Z" fill="#FEFEFE"/>
<path d="M91 183.6V188.6H90.5C90.4333 188.6 90.3667 188.6 90.3 188.6C90.2333 188.533 90.1666 188.467 90.1 188.4L87.6 185.3C87.6666 185.367 87.7 185.433 87.7 185.5C87.7 185.567 87.7 185.633 87.7 185.7V188.6H86.8V183.6H87.3C87.3667 183.6 87.4 183.6 87.4 183.6C87.4667 183.6 87.5 183.6 87.5 183.6C87.5 183.667 87.5333 183.7 87.6 183.7C87.6 183.7 87.6 183.733 87.6 183.8L90.1 187C90.1 186.867 90.1 186.767 90.1 186.7C90.1 186.633 90.1 186.567 90.1 186.5V183.6H91Z" fill="#FEFEFE"/>
<path d="M96.4 186.7V188.6H95.4V186.7L93.5 183.6H94.5C94.5667 183.6 94.6333 183.633 94.7 183.7C94.7667 183.7 94.8 183.733 94.8 183.8L95.6 185.4C95.6667 185.533 95.7333 185.633 95.8 185.7C95.8 185.833 95.8333 185.933 95.9 186C95.9 185.933 95.9333 185.833 96 185.7C96.0667 185.633 96.1 185.533 96.1 185.4L97 183.8C97 183.8 97.0333 183.767 97.1 183.7C97.1667 183.633 97.2333 183.6 97.3 183.6H98.2L96.4 186.7Z" fill="#FEFEFE"/>
<path d="M104.3 184.5H102.8V188.6H101.8V184.5H100.3V183.6H104.3V184.5Z" fill="#FEFEFE"/>
<path d="M111.2 183.6V188.6H110.2V186.5H108V188.6H106.9V183.6H108V185.7H110.2V183.6H111.2Z" fill="#FEFEFE"/>
<path d="M115.4 188.6H114.3V183.6H115.4V188.6Z" fill="#FEFEFE"/>
<path d="M122.7 183.6V188.6H122.2C122.133 188.6 122.067 188.6 122 188.6C121.933 188.533 121.867 188.467 121.8 188.4L119.4 185.3C119.4 185.367 119.4 185.433 119.4 185.5C119.4 185.567 119.4 185.633 119.4 185.7V188.6H118.5V183.6H119C119.067 183.6 119.1 183.6 119.1 183.6C119.167 183.6 119.2 183.6 119.2 183.6C119.2 183.667 119.233 183.7 119.3 183.7C119.3 183.7 119.3 183.733 119.3 183.8L121.9 187C121.833 186.867 121.8 186.767 121.8 186.7C121.8 186.633 121.8 186.567 121.8 186.5V183.6H122.7Z" fill="#FEFEFE"/>
<path d="M128.3 186.1H130V188.1C129.733 188.3 129.467 188.433 129.2 188.5C128.867 188.633 128.567 188.7 128.3 188.7C127.833 188.7 127.433 188.633 127.1 188.5C126.767 188.367 126.5 188.167 126.3 187.9C126.033 187.7 125.833 187.433 125.7 187.1C125.633 186.833 125.6 186.5 125.6 186.1C125.6 185.767 125.633 185.433 125.7 185.1C125.833 184.767 126.033 184.5 126.3 184.3C126.5 184.033 126.767 183.867 127.1 183.8C127.433 183.667 127.8 183.6 128.2 183.6C128.4 183.6 128.567 183.6 128.7 183.6C128.9 183.667 129.067 183.733 129.2 183.8C129.4 183.8 129.567 183.867 129.7 184C129.767 184.067 129.867 184.133 130 184.2L129.7 184.7C129.633 184.767 129.567 184.8 129.5 184.8C129.433 184.8 129.367 184.8 129.3 184.8C129.233 184.733 129.133 184.667 129 184.6C128.933 184.6 128.867 184.567 128.8 184.5C128.667 184.5 128.567 184.5 128.5 184.5C128.367 184.433 128.233 184.4 128.1 184.4C127.9 184.4 127.7 184.467 127.5 184.6C127.3 184.667 127.133 184.767 127 184.9C126.867 185.033 126.767 185.2 126.7 185.4C126.633 185.6 126.6 185.833 126.6 186.1C126.6 186.367 126.633 186.6 126.7 186.8C126.767 187.067 126.9 187.267 127.1 187.4C127.233 187.533 127.4 187.633 127.6 187.7C127.8 187.833 128 187.9 128.2 187.9C128.4 187.9 128.567 187.867 128.7 187.8C128.833 187.8 128.933 187.767 129 187.7V186.8H128.5C128.433 186.8 128.367 186.8 128.3 186.8C128.3 186.733 128.3 186.667 128.3 186.6V186.1Z" fill="#FEFEFE"/>
</g>
<defs>
<linearGradient id="paint0_linear_95_35" x1="455.316" y1="786.853" x2="644.452" y2="733.141" gradientUnits="userSpaceOnUse">
<stop offset="0.2" stop-color="#FEFEFE"/>
<stop offset="0.4" stop-color="#8F9193"/>
<stop offset="0.7" stop-color="#876F2B"/>
<stop offset="0.9" stop-color="#E2B41F"/>
<stop offset="1" stop-color="#E2B41F"/>
</linearGradient>
<clipPath id="clip0_95_35">
<rect width="148" height="44" fill="white" transform="translate(0 145)"/>
</clipPath>
</defs>
</svg>
