<svg width="16" height="16" viewBox="0 0 16 16" fill="none" xmlns="http://www.w3.org/2000/svg">
<g clip-path="url(#clip0_66_26)">
<path d="M11.5 0H10.6666H5.33329H4.49996C3.48863 0 2.66663 0.822 2.66663 1.83333V14.1667C2.66663 15.178 3.48863 16 4.49996 16H11.5C12.5113 16 13.3333 15.178 13.3333 14.1667V1.83333C13.3333 0.822 12.5113 0 11.5 0ZM12 14C12 14.368 11.7013 14.6667 11.3333 14.6667H4.66663C4.29863 14.6667 3.99996 14.368 3.99996 14V2C3.99996 1.632 4.29863 1.33333 4.66663 1.33333H4.99996C5.36796 1.33333 5.66663 1.632 5.66663 2C5.66663 2.368 5.96529 2.66667 6.33329 2.66667H9.66663C10.0346 2.66667 10.3333 2.368 10.3333 2C10.3333 1.632 10.632 1.33333 11 1.33333H11.3333C11.7013 1.33333 12 1.632 12 2V14Z" fill="#B1B1B1"/>
</g>
<defs>
<clipPath id="clip0_66_26">
<rect width="16" height="16" fill="white"/>
</clipPath>
</defs>
</svg>
